<?xml version="1.0" encoding="utf-8"?>
<!-- Generator: Adobe Illustrator 15.1.0, SVG Export Plug-In . SVG Version: 6.00 Build 0)  -->
<!DOCTYPE svg PUBLIC "-//W3C//DTD SVG 1.1//EN" "http://www.w3.org/Graphics/SVG/1.1/DTD/svg11.dtd">
<svg version="1.1" id="Layer_1" xmlns="http://www.w3.org/2000/svg" xmlns:xlink="http://www.w3.org/1999/xlink" x="0px" y="0px"
	 width="419.041px" height="335.521px" viewBox="0 0 419.041 335.521" enable-background="new 0 0 419.041 335.521"
	 xml:space="preserve">
<g>
	<g>
		<polygon fill-rule="evenodd" clip-rule="evenodd" fill="#31488E" points="222.759,117.845 202.276,61.517 176.672,102.481 
			198.436,21.831 231.72,107.603 314.931,108.882 249.642,161.371 271.406,244.581 206.116,199.774 250.923,213.856 235.56,160.09 
			289.328,119.125 		"/>
		<path fill-rule="evenodd" clip-rule="evenodd" fill="#31488E" d="M362.297,93.521l-58.888,48.646l19.203,69.129
			c0,0-1.602,0-1.281,0s-53.767-35.844-53.767-35.844s38.124,10.426,35.845,10.24c-3.596-16.033-12.802-46.085-12.802-46.085
			l44.806-37.126c0,0-36.697,0-55.047,0c-6.279-16.763-19.203-49.927-19.203-49.927L240.681,87.12l17.922-69.13l28.164,74.251
			L362.297,93.521z"/>
		<path fill-rule="evenodd" clip-rule="evenodd" fill="#31488E" d="M172.832,125.525c0,0,50.353,0,75.53,0
			c-58.125,11.43-108.743,30.369-153.62,55.048c-25.633-17.895-76.811-53.768-76.811-53.768l93.453-1.28l29.443-89.612
			L172.832,125.525z"/>
		<path fill-rule="evenodd" clip-rule="evenodd" fill="#31488E" d="M257.324,129.365l-35.064,25.093l-0.205,0.127l-31.965,22.863
			l26.269,85.055l-74.301-50.682l-69.065,49.391c0-0.014,0-0.014,0-0.014c0.013-0.014,0.013-0.039,0.038-0.064
			c0.909-1.844,16.04-31.787,52.398-63.881c0.844-0.742,1.702-1.497,2.572-2.24c0.871-0.754,1.755-1.497,2.65-2.254
			c2.791-2.342,5.697-4.697,8.718-7.041c1.806-1.408,3.662-2.803,5.557-4.197c1.011-0.755,2.035-1.498,3.072-2.241
			c0.064-0.051,0.128-0.103,0.192-0.142c0.973-0.69,1.958-1.395,2.957-2.086c0.999-0.703,2.01-1.395,3.022-2.086
			c0.063-0.039,0.127-0.092,0.191-0.13c0.077-0.063,0.167-0.126,0.256-0.177c0.589-0.397,1.178-0.796,1.78-1.19
			c0.178-0.116,0.371-0.245,0.563-0.372c0.281-0.192,0.55-0.371,0.832-0.55c0.896-0.59,1.805-1.18,2.714-1.769
			c0.167-0.114,0.346-0.229,0.512-0.333v-0.012h0.012c0.052-0.039,0.103-0.064,0.154-0.091c2.228-1.421,4.494-2.828,6.811-4.236
			c0.128-0.09,0.256-0.154,0.371-0.23c0.704-0.424,1.408-0.846,2.112-1.254c0.499-0.295,0.999-0.589,1.51-0.885
			c1.076-0.626,2.177-1.254,3.277-1.881c0.845-0.485,1.703-0.96,2.574-1.435c0.704-0.396,1.407-0.781,2.112-1.164
			c1.011-0.551,2.023-1.09,3.046-1.626c0.014-0.014,0.014-0.014,0.014-0.014c0.986-0.523,1.984-1.037,2.982-1.562
			c0.038-0.013,0.077-0.038,0.102-0.051c0.922-0.474,1.857-0.935,2.792-1.407c0.652-0.321,1.305-0.641,1.958-0.973
			c0.717-0.359,1.434-0.719,2.164-1.063c0.602-0.295,1.216-0.589,1.818-0.87c0.666-0.321,1.344-0.641,2.022-0.961
			c0.845-0.397,1.703-0.794,2.561-1.177c0.87-0.397,1.728-0.782,2.599-1.179c0.743-0.319,1.486-0.652,2.241-0.985
			c2.292-0.999,4.622-1.985,6.989-2.945c1.356-0.55,2.714-1.101,4.085-1.638c1.664-0.652,3.327-1.293,5.018-1.92
			c10.049-3.753,20.521-7.119,31.39-10.062C253.585,130.326,255.442,129.84,257.324,129.365z"/>
		<g>
			<path fill="#31488E" d="M125.115,295.784h-23.016v9.764h38.254v11.982h-36.826c-6.349,0-14.682-4.841-14.682-14.207v-24.999
				c0-11.666,10.317-14.763,14.523-14.763h22.303c9.683,0,15.238,7.619,15.238,13.73v5.079
				C140.909,289.593,139.798,295.784,125.115,295.784z M127.655,279.038c0-1.905-1.032-3.492-3.413-3.492h-22.143v8.176h25.556
				V279.038z"/>
			<path fill="#31488E" d="M147.215,317.53v-53.969h13.254v41.986h33.889v11.982H147.215z"/>
			<path fill="#31488E" d="M236.186,317.53v-2.143c-1.745,0.794-4.604,2.143-9.762,2.143h-13.413
				c-9.684,0-15.556-6.27-15.556-14.683v-3.492c0-10.477,6.507-15.634,15.873-15.634h22.938v-8.176h-31.985v-11.984h29.762
				c1.746,0,15.477,0.396,15.477,15.001v31.19l0.238,7.777H236.186z M236.266,295.784h-25.557v9.764h19.048
				c5.477,0,6.509-1.508,6.509-8.335V295.784z"/>
			<path fill="#31488E" d="M292.828,317.53h-37.382v-11.982h34.366c3.254,0,4.207-1.113,4.207-3.81v-2.225
				c0-3.491-1.984-3.729-4.762-3.729h-19.05c-6.507,0-14.999-4.522-14.999-14.286v-3.889c0-7.699,6.586-14.048,15.079-14.048h31.19
				v11.984h-29.365c-1.905,0-3.65,1.032-3.65,3.333v1.667c0,2.302,1.825,3.176,3.969,3.176h18.57
				c10.239,0,16.271,7.222,16.271,13.729v5.556C307.273,313.643,297.589,317.53,292.828,317.53z"/>
			<g>
				<path fill-rule="evenodd" clip-rule="evenodd" fill="#31488E" d="M83.748,278.648v38.678H71.766v-36.004
					c0-1.906-1.038-3.646-3.342-3.646h-1.382v-0.027H59.04v39.678H44.958v-39.678H32.157v39.678H18.075v-53.76h51.617
					C77.398,263.566,83.748,270.146,83.748,278.648z"/>
				<line fill="#31488E" x1="18.075" y1="317.326" x2="18.075" y2="309.436"/>
			</g>
			<path fill="#31488E" d="M335.945,275.546v41.984h-13.968v-41.984h-15.556v-11.984H351.5v11.984H335.945z"/>
			<path fill="#31488E" d="M387.537,317.53v-2.143c-1.744,0.794-4.603,2.143-9.761,2.143h-13.413
				c-9.683,0-15.557-6.27-15.557-14.683v-3.492c0-10.477,6.509-15.634,15.874-15.634h22.937v-8.176h-31.984v-11.984h29.762
				c1.747,0,15.478,0.396,15.478,15.001v31.19l0.237,7.777H387.537z M387.617,295.784h-25.556v9.764h19.048
				c5.477,0,6.508-1.508,6.508-8.335V295.784z"/>
		</g>
	</g>
</g>
</svg>
