<?xml version="1.0" encoding="utf-8"?>
<!-- Generator: Adobe Illustrator 23.0.2, SVG Export Plug-In . SVG Version: 6.00 Build 0)  -->
<svg version="1.1" id="Layer_1" xmlns="http://www.w3.org/2000/svg" xmlns:xlink="http://www.w3.org/1999/xlink" x="0px" y="0px"
	 viewBox="0 0 1000 1000" style="enable-background:new 0 0 1000 1000;" xml:space="preserve">
<style type="text/css">
	.st0{fill:url(#SVGID_1_);}
	.st1{fill:url(#SVGID_2_);}
	.st2{fill:url(#SVGID_3_);}
	.st3{fill:url(#SVGID_4_);}
	.st4{fill:url(#SVGID_5_);}
	.st5{fill:url(#SVGID_6_);}
</style>
<g>
	<g>
		
			<linearGradient id="SVGID_1_" gradientUnits="userSpaceOnUse" x1="411.5458" y1="553.4103" x2="411.5458" y2="151.8991" gradientTransform="matrix(0.7071 0.7071 -0.7071 0.7071 515.9968 -131.6183)">
			<stop  offset="0" style="stop-color:#29ABE2"/>
			<stop  offset="1" style="stop-color:#0071BC"/>
		</linearGradient>
		<path class="st0" d="M774.65,341.86c-1.8-1.69-3.64-3.33-5.51-4.9c-0.61-0.52-1.23-1.04-1.85-1.54c-1.68-1.38-3.4-2.7-5.15-3.98
			c-1.73-1.28-3.49-2.5-5.27-3.69c-0.73-0.48-1.46-0.95-2.19-1.41c-1.96-1.26-3.96-2.45-5.99-3.59c-0.93-0.51-1.85-1.02-2.78-1.52
			c-0.69-0.37-1.4-0.73-2.09-1.08c-0.33-0.19-0.68-0.36-1.04-0.53c-0.83-0.41-1.67-0.82-2.49-1.22c-0.01-0.01-0.03-0.01-0.03-0.01
			c-0.95-0.45-1.91-0.88-2.86-1.31c-0.9-0.4-1.8-0.79-2.71-1.16c-0.09-0.05-0.19-0.1-0.29-0.13c-0.93-0.39-1.86-0.77-2.8-1.13
			c-0.97-0.38-1.95-0.75-2.93-1.1c-0.86-0.32-1.74-0.62-2.61-0.92c-0.26-0.1-0.54-0.2-0.83-0.27c-0.77-0.27-1.55-0.52-2.32-0.76
			c-0.08-0.03-0.16-0.05-0.23-0.07c-0.96-0.3-1.94-0.59-2.91-0.86c-0.99-0.29-2-0.56-3-0.82c-1.01-0.27-2.01-0.51-3.02-0.75
			c-1.01-0.23-2.03-0.46-3.03-0.68c-1.01-0.22-2.03-0.42-3.03-0.6c-0.91-0.17-1.8-0.32-2.71-0.48c-0.4-0.07-0.78-0.13-1.2-0.19
			c-0.73-0.12-1.47-0.23-2.21-0.32c-12.26-1.71-24.72-1.71-36.98,0c-0.75,0.1-1.49,0.21-2.21,0.32c-0.41,0.05-0.8,0.12-1.2,0.19
			c-0.91,0.15-1.8,0.31-2.71,0.48c-1.01,0.18-2.03,0.39-3.03,0.6c-1.01,0.22-2.03,0.44-3.03,0.68c-1.01,0.23-2.01,0.48-3.02,0.75
			c-1,0.26-2.01,0.53-3,0.82c-0.97,0.27-1.94,0.56-2.91,0.86c-0.07,0.02-0.15,0.04-0.23,0.07c-0.77,0.23-1.55,0.49-2.32,0.76
			c-0.29,0.07-0.57,0.17-0.83,0.27c-0.87,0.3-1.75,0.59-2.61,0.92c-0.98,0.35-1.96,0.72-2.93,1.1c-0.94,0.36-1.87,0.74-2.8,1.13
			c-0.1,0.03-0.2,0.07-0.29,0.13c-0.91,0.37-1.81,0.77-2.71,1.16c-0.95,0.43-1.91,0.86-2.86,1.31c0,0-0.02,0-0.03,0.01
			c-0.83,0.4-1.67,0.8-2.49,1.22c-0.35,0.17-0.7,0.34-1.04,0.53c-0.69,0.35-1.4,0.71-2.09,1.08c-0.94,0.5-1.85,1.01-2.78,1.52
			c-2.03,1.14-4.02,2.33-5.99,3.59c-0.73,0.46-1.46,0.94-2.19,1.41c-1.78,1.19-3.55,2.41-5.27,3.69c-1.75,1.28-3.47,2.6-5.15,3.98
			c-0.61,0.5-1.23,1.02-1.85,1.54c-1.87,1.57-3.7,3.2-5.49,4.88l-0.07,0.07c-0.32,0.31-0.66,0.62-0.98,0.93l-0.48,0.48
			c-0.49,0.45-0.96,0.93-1.44,1.4L399.13,534.16l-58.51-58.51l130.93-130.93c20.72-20.72,44.6-36.36,70.09-46.92
			c44.97-18.63,94.96-21.45,141.44-8.43C716.47,298.7,748.03,316.22,774.65,341.86z"/>
		
			<linearGradient id="SVGID_2_" gradientUnits="userSpaceOnUse" x1="480.3996" y1="368.2415" x2="480.3996" y2="73.0369" gradientTransform="matrix(0.7071 0.7071 -0.7071 0.7071 515.9968 -131.6183)">
			<stop  offset="0" style="stop-color:#29ABE2"/>
			<stop  offset="1" style="stop-color:#0071BC"/>
		</linearGradient>
		<path class="st1" d="M780.48,530.77c1.68-1.79,3.31-3.62,4.88-5.49c0.52-0.61,1.04-1.23,1.54-1.85c1.38-1.68,2.7-3.4,3.98-5.15
			c1.28-1.73,2.5-3.49,3.69-5.27c0.48-0.73,0.95-1.46,1.41-2.19c1.26-1.96,2.45-3.96,3.59-5.99c0.51-0.93,1.02-1.85,1.52-2.78
			c0.37-0.69,0.73-1.4,1.08-2.09c0.19-0.33,0.36-0.68,0.53-1.04c0.41-0.83,0.82-1.67,1.22-2.49c0.01-0.01,0.01-0.03,0.01-0.03
			c0.45-0.95,0.88-1.91,1.31-2.86c0.4-0.9,0.79-1.8,1.16-2.71c0.05-0.09,0.1-0.19,0.13-0.29c0.39-0.93,0.77-1.86,1.13-2.8
			c0.38-0.97,0.75-1.95,1.1-2.93c0.32-0.86,0.62-1.74,0.92-2.61c0.1-0.26,0.2-0.54,0.27-0.83c0.27-0.77,0.52-1.55,0.76-2.32
			c0.03-0.08,0.05-0.16,0.07-0.23c0.3-0.96,0.59-1.94,0.86-2.91c0.29-0.99,0.56-2,0.82-3c0.27-1.01,0.51-2.01,0.75-3.02
			s0.46-2.03,0.68-3.03c0.22-1.01,0.42-2.03,0.6-3.03c0.17-0.91,0.32-1.8,0.48-2.71c0.07-0.4,0.14-0.78,0.19-1.2
			c0.12-0.73,0.23-1.47,0.32-2.21c1.71-12.26,1.71-24.72,0-36.98c-0.1-0.75-0.21-1.49-0.32-2.21c-0.05-0.41-0.12-0.8-0.19-1.2
			c-0.15-0.91-0.31-1.8-0.48-2.71c-0.18-1.01-0.39-2.03-0.6-3.03c-0.22-1.01-0.44-2.03-0.68-3.03c-0.23-1.01-0.48-2.01-0.75-3.02
			c-0.26-1-0.53-2.01-0.82-3c-0.27-0.97-0.56-1.94-0.86-2.91c-0.02-0.07-0.04-0.15-0.07-0.23c-0.23-0.77-0.49-1.55-0.76-2.32
			c-0.07-0.29-0.17-0.57-0.27-0.83c-0.3-0.87-0.59-1.75-0.92-2.61c-0.35-0.98-0.72-1.96-1.1-2.93c-0.36-0.94-0.74-1.87-1.13-2.8
			c-0.03-0.1-0.07-0.2-0.13-0.29c-0.37-0.91-0.77-1.81-1.16-2.71c-0.43-0.95-0.86-1.91-1.31-2.86c0,0,0-0.02-0.01-0.03
			c-0.4-0.83-0.8-1.67-1.22-2.49c-0.17-0.35-0.34-0.7-0.53-1.04c-0.35-0.69-0.71-1.4-1.08-2.09c-0.5-0.94-1.01-1.85-1.52-2.78
			c-1.14-2.03-2.33-4.02-3.59-5.99c-0.46-0.73-0.94-1.46-1.41-2.19c-1.19-1.78-2.41-3.55-3.69-5.27c-1.28-1.75-2.6-3.47-3.98-5.15
			c-0.5-0.61-1.02-1.23-1.54-1.85c-1.57-1.87-3.2-3.71-4.9-5.51l-0.05-0.05c-0.47-0.49-0.94-0.97-1.4-1.46
			c-0.45-0.49-0.93-0.96-1.4-1.44c-0.48-0.48-0.95-0.95-1.44-1.4c-0.49-0.47-0.97-0.94-1.46-1.4l-0.05-0.05
			c-26.63-25.64-58.18-43.15-91.56-52.5c-46.48-13.02-96.47-10.2-141.44,8.43c-25.49,10.57-49.37,26.2-70.09,46.92l58.51-58.51
			c10-10,20.75-18.82,32.04-26.46c72.87-49.23,169.09-49.23,241.96,0c8.17,12.12,15,24.86,20.46,38.05
			c18.63,44.97,21.45,94.96,8.43,141.44C823.62,472.61,806.12,504.17,780.48,530.77z"/>
		
			<linearGradient id="SVGID_3_" gradientUnits="userSpaceOnUse" x1="478.3839" y1="678.6329" x2="873.9059" y2="283.111" gradientTransform="matrix(1 0 0 1 24.0952 64.9765)">
			<stop  offset="0" style="stop-color:#29ABE2"/>
			<stop  offset="1" style="stop-color:#0071BC"/>
		</linearGradient>
		<path class="st2" d="M862.57,560.21c-7.64,11.29-16.46,22.04-26.45,32.04l-184,183.98H535.11L777.6,533.75
			c0.48-0.48,0.95-0.95,1.41-1.45l0.47-0.47c0.31-0.32,0.62-0.66,0.93-0.98l0.08-0.08c25.64-26.61,43.13-58.16,52.47-91.54
			c13.02-46.49,10.2-96.47-8.43-141.44c-5.47-13.19-12.3-25.93-20.47-38.05c11.3,7.65,22.05,16.47,32.05,26.47
			c9.99,10.01,18.81,20.75,26.45,32.04C911.81,391.11,911.81,487.34,862.57,560.21z"/>
	</g>
	<g>
		
			<linearGradient id="SVGID_4_" gradientUnits="userSpaceOnUse" x1="371.7088" y1="372.8914" x2="371.7088" y2="774.4026" gradientTransform="matrix(-0.7071 -0.7071 0.7071 -0.7071 298.569 1258.8037)">
			<stop  offset="0" style="stop-color:#29ABE2"/>
			<stop  offset="1" style="stop-color:#0071BC"/>
		</linearGradient>
		<path class="st3" d="M224.35,657.23c1.8,1.69,3.64,3.33,5.51,4.9c0.61,0.52,1.23,1.04,1.85,1.54c1.68,1.38,3.4,2.7,5.15,3.98
			c1.73,1.28,3.49,2.5,5.27,3.69c0.73,0.48,1.46,0.95,2.19,1.41c1.96,1.26,3.96,2.45,5.99,3.59c0.93,0.51,1.85,1.02,2.78,1.52
			c0.69,0.37,1.4,0.73,2.09,1.08c0.33,0.19,0.68,0.36,1.04,0.53c0.83,0.41,1.67,0.82,2.49,1.22c0.01,0.01,0.03,0.01,0.03,0.01
			c0.95,0.45,1.91,0.88,2.86,1.31c0.9,0.4,1.8,0.79,2.71,1.16c0.09,0.05,0.19,0.1,0.29,0.13c0.93,0.39,1.86,0.77,2.8,1.13
			c0.97,0.38,1.95,0.75,2.93,1.1c0.86,0.32,1.74,0.62,2.61,0.92c0.26,0.1,0.54,0.2,0.83,0.27c0.77,0.27,1.55,0.52,2.32,0.76
			c0.08,0.03,0.16,0.05,0.23,0.07c0.96,0.3,1.94,0.59,2.91,0.86c0.99,0.29,2,0.56,3,0.82c1.01,0.27,2.01,0.51,3.02,0.75
			c1.01,0.23,2.03,0.46,3.03,0.68c1.01,0.22,2.03,0.42,3.03,0.6c0.91,0.17,1.8,0.32,2.71,0.48c0.4,0.07,0.78,0.14,1.2,0.19
			c0.73,0.12,1.47,0.23,2.21,0.32c12.26,1.71,24.72,1.71,36.98,0c0.75-0.1,1.49-0.21,2.21-0.32c0.41-0.05,0.8-0.12,1.2-0.19
			c0.91-0.15,1.8-0.31,2.71-0.48c1.01-0.18,2.03-0.39,3.03-0.6c1.01-0.22,2.03-0.44,3.03-0.68c1.01-0.23,2.01-0.48,3.02-0.75
			c1-0.26,2.01-0.53,3-0.82c0.97-0.27,1.94-0.56,2.91-0.86c0.07-0.02,0.15-0.04,0.23-0.07c0.77-0.23,1.55-0.49,2.32-0.76
			c0.29-0.07,0.57-0.17,0.83-0.27c0.87-0.3,1.75-0.59,2.61-0.92c0.98-0.35,1.96-0.72,2.93-1.1c0.94-0.36,1.87-0.74,2.8-1.13
			c0.1-0.03,0.2-0.07,0.29-0.13c0.91-0.37,1.81-0.77,2.71-1.16c0.95-0.43,1.91-0.86,2.86-1.31c0,0,0.02,0,0.03-0.01
			c0.83-0.4,1.67-0.8,2.49-1.22c0.35-0.17,0.7-0.34,1.04-0.53c0.69-0.35,1.4-0.71,2.09-1.08c0.94-0.5,1.85-1.01,2.78-1.52
			c2.03-1.14,4.02-2.33,5.99-3.59c0.73-0.46,1.46-0.94,2.19-1.41c1.78-1.19,3.55-2.41,5.27-3.69c1.75-1.28,3.47-2.6,5.15-3.98
			c0.61-0.5,1.23-1.02,1.85-1.54c1.87-1.57,3.7-3.2,5.49-4.88l0.07-0.07c0.32-0.31,0.66-0.62,0.98-0.93l0.48-0.48
			c0.49-0.45,0.96-0.93,1.44-1.4l189.44-189.44l58.51,58.51L527.44,654.37c-20.72,20.72-44.6,36.36-70.09,46.92
			c-44.97,18.63-94.96,21.45-141.44,8.43C282.53,700.39,250.97,682.87,224.35,657.23z"/>
		
			<linearGradient id="SVGID_5_" gradientUnits="userSpaceOnUse" x1="440.5626" y1="294.0292" x2="440.5626" y2="589.2338" gradientTransform="matrix(-0.7071 -0.7071 0.7071 -0.7071 298.569 1258.8037)">
			<stop  offset="0" style="stop-color:#29ABE2"/>
			<stop  offset="1" style="stop-color:#0071BC"/>
		</linearGradient>
		<path class="st4" d="M218.52,468.32c-1.68,1.79-3.31,3.62-4.88,5.49c-0.52,0.61-1.04,1.23-1.54,1.85c-1.38,1.68-2.7,3.4-3.98,5.15
			c-1.28,1.73-2.5,3.49-3.69,5.27c-0.48,0.73-0.95,1.46-1.41,2.19c-1.26,1.96-2.45,3.96-3.59,5.99c-0.51,0.93-1.02,1.85-1.52,2.78
			c-0.37,0.69-0.73,1.4-1.08,2.09c-0.19,0.33-0.36,0.68-0.53,1.04c-0.41,0.83-0.82,1.67-1.22,2.49c-0.01,0.01-0.01,0.03-0.01,0.03
			c-0.45,0.95-0.88,1.91-1.31,2.86c-0.4,0.9-0.79,1.8-1.16,2.71c-0.05,0.09-0.1,0.19-0.13,0.29c-0.39,0.93-0.77,1.86-1.13,2.8
			c-0.38,0.97-0.75,1.95-1.1,2.93c-0.32,0.86-0.62,1.74-0.92,2.61c-0.1,0.26-0.2,0.54-0.27,0.83c-0.27,0.77-0.52,1.55-0.76,2.32
			c-0.03,0.08-0.05,0.16-0.07,0.23c-0.3,0.96-0.59,1.94-0.86,2.91c-0.29,0.99-0.56,2-0.82,3c-0.27,1.01-0.51,2.01-0.75,3.02
			c-0.23,1.01-0.46,2.03-0.68,3.03c-0.22,1.01-0.42,2.03-0.6,3.03c-0.17,0.91-0.32,1.8-0.48,2.71c-0.07,0.4-0.14,0.78-0.19,1.2
			c-0.12,0.73-0.23,1.47-0.32,2.21c-1.71,12.26-1.71,24.72,0,36.98c0.1,0.75,0.21,1.49,0.32,2.21c0.05,0.41,0.12,0.8,0.19,1.2
			c0.15,0.91,0.31,1.8,0.48,2.71c0.18,1.01,0.39,2.03,0.6,3.03c0.22,1.01,0.44,2.03,0.68,3.03c0.23,1.01,0.48,2.01,0.75,3.02
			c0.26,1,0.53,2.01,0.82,3c0.27,0.97,0.56,1.94,0.86,2.91c0.02,0.07,0.04,0.15,0.07,0.23c0.23,0.77,0.49,1.55,0.76,2.32
			c0.07,0.29,0.17,0.57,0.27,0.83c0.3,0.87,0.59,1.75,0.92,2.61c0.35,0.98,0.72,1.96,1.1,2.93c0.36,0.94,0.74,1.87,1.13,2.8
			c0.03,0.1,0.07,0.2,0.13,0.29c0.37,0.91,0.77,1.81,1.16,2.71c0.43,0.95,0.86,1.91,1.31,2.86c0,0,0,0.02,0.01,0.03
			c0.4,0.83,0.8,1.67,1.22,2.49c0.17,0.35,0.34,0.7,0.53,1.04c0.35,0.69,0.71,1.4,1.08,2.09c0.5,0.94,1.01,1.85,1.52,2.78
			c1.14,2.03,2.33,4.02,3.59,5.99c0.46,0.73,0.94,1.46,1.41,2.19c1.19,1.78,2.41,3.55,3.69,5.27c1.28,1.75,2.6,3.47,3.98,5.15
			c0.5,0.61,1.02,1.23,1.54,1.85c1.57,1.87,3.2,3.71,4.9,5.51l0.05,0.05c0.47,0.49,0.94,0.97,1.4,1.46c0.45,0.49,0.93,0.96,1.4,1.44
			c0.48,0.48,0.95,0.95,1.44,1.4c0.49,0.47,0.97,0.94,1.46,1.4l0.05,0.05c26.63,25.64,58.18,43.15,91.56,52.5
			c46.48,13.02,96.47,10.2,141.44-8.43c25.49-10.57,49.37-26.2,70.09-46.92l-58.51,58.51c-10,10-20.75,18.82-32.04,26.46
			c-72.87,49.23-169.09,49.23-241.96,0c-8.17-12.12-15-24.86-20.46-38.05c-18.63-44.97-21.45-94.96-8.43-141.44
			C175.38,526.48,192.88,494.92,218.52,468.32z"/>
		
			<linearGradient id="SVGID_6_" gradientUnits="userSpaceOnUse" x1="689.4717" y1="411.2072" x2="293.9498" y2="806.7291" gradientTransform="matrix(-1 0 0 -1 790.4706 1062.2089)">
			<stop  offset="0" style="stop-color:#29ABE2"/>
			<stop  offset="1" style="stop-color:#0071BC"/>
		</linearGradient>
		<path class="st5" d="M136.43,438.88c7.64-11.29,16.46-22.04,26.45-32.04l184-183.98h117.01L221.4,465.34
			c-0.48,0.48-0.95,0.95-1.41,1.45l-0.47,0.47c-0.31,0.32-0.62,0.66-0.93,0.98l-0.08,0.08c-25.64,26.61-43.13,58.16-52.47,91.54
			c-13.02,46.49-10.2,96.47,8.43,141.44c5.47,13.19,12.3,25.93,20.47,38.05c-11.3-7.65-22.05-16.47-32.05-26.47
			c-9.99-10.01-18.81-20.75-26.45-32.04C87.19,607.98,87.19,511.75,136.43,438.88z"/>
	</g>
</g>
</svg>
